<?xml version="1.0" encoding="UTF-8"?>
<!-- Created with Inkscape (http://www.inkscape.org/) -->
<svg width="210mm" height="297mm" version="1.1" viewBox="0 0 210 297" xml:space="preserve" xmlns="http://www.w3.org/2000/svg"><path d="m97.717 289.93c-0.6536-0.0928-3.1492-0.37206-5.5457-0.62072-16.101-1.6705-32.807-7.9223-46.408-17.367-23.547-16.351-38.965-40.255-43.91-68.077-5.4452-30.639 2.4176-61.869 21.59-85.755 18.453-22.989 46.137-36.756 76.65-38.119 33.207-1.4828 64.333 12.228 85.411 37.624 11.834 14.258 20.203 32.882 22.778 50.691 1.0622 7.3458 1.0723 26.587 0.0172 33.1-3.6896 22.775-12.588 40.805-28.25 57.24-15.655 16.427-35.918 26.94-58.842 30.528-3.8602 0.60419-20.733 1.1468-23.491 0.75545zm20.202-19.7c8.6844-1.633 14.99-3.5495 21.515-6.5388 24.929-11.422 43.3-34.943 48.613-62.242 1.8528-9.5206 1.9342-23.584 0.19108-33.017-1.2375-6.6972-2.218-10.048-4.8098-16.435-11.323-27.904-34.771-47.227-63.924-52.678-4.8046-0.89836-18.23-1.2486-23.96-0.62508-10.11 1.1002-19.815 4.0314-28.885 8.7235-17.702 9.1581-30.399 22.507-38.882 40.878-5.7278 12.404-7.8094 23.536-7.3889 39.514 0.21818 8.2903 0.72485 12.436 2.3203 18.988 7.6304 31.332 32.755 55.696 64.511 62.557 2.7233 0.5884 6.2884 1.2394 7.9224 1.4466 4.5112 0.57216 18.574 0.21999 22.777-0.57039zm-30.582-37.509c-1.5365-0.79576-6.0805-5.2462-19.021-18.629-19.061-19.713-19.143-19.818-19.432-25.184-0.15614-2.8903-0.07605-3.2864 1.1655-5.7668 3.1677-6.3284 10.381-8.7512 16.318-5.4811 1.4044 0.77353 5.2358 4.4193 12.334 11.736 5.663 5.8376 10.419 10.567 10.568 10.51 0.36285-0.13879 23.989-24.119 41.781-42.408 12.879-13.238 14.586-14.849 16.959-16.003 2.4422-1.1878 2.8844-1.2699 5.941-1.1031 2.8928 0.1578 3.5833 0.35551 5.5675 1.5942 5.321 3.3217 7.1394 8.2799 4.6743 12.745-2.2996 4.1655-22.062 26.783-37.607 43.04-26.315 27.52-34.969 35.996-36.751 35.996-0.26214 0-1.385-0.4705-2.4953-1.0456z" fill="#e10000" stroke-width="1.5263"/></svg>
