<?xml version="1.0" encoding="UTF-8" standalone="no"?>
<!-- Created with Inkscape (http://www.inkscape.org/) -->

<svg
   width="210mm"
   height="297mm"
   viewBox="0 0 210 297"
   version="1.1"
   id="svg1"
   xml:space="preserve"
   inkscape:version="1.4.2 (f4327f4, 2025-05-13)"
   sodipodi:docname="checkPic3.svg"
   xmlns:inkscape="http://www.inkscape.org/namespaces/inkscape"
   xmlns:sodipodi="http://sodipodi.sourceforge.net/DTD/sodipodi-0.dtd"
   xmlns="http://www.w3.org/2000/svg"
   xmlns:svg="http://www.w3.org/2000/svg"><sodipodi:namedview
     id="namedview1"
     pagecolor="#ffffff"
     bordercolor="#999999"
     borderopacity="1"
     inkscape:showpageshadow="2"
     inkscape:pageopacity="0"
     inkscape:pagecheckerboard="0"
     inkscape:deskcolor="#d1d1d1"
     inkscape:document-units="mm"
     inkscape:zoom="0.69753788"
     inkscape:cx="396.39424"
     inkscape:cy="561.25984"
     inkscape:window-width="1920"
     inkscape:window-height="1001"
     inkscape:window-x="-9"
     inkscape:window-y="-9"
     inkscape:window-maximized="1"
     inkscape:current-layer="layer1" /><defs
     id="defs1" /><g
     inkscape:label="Layer 1"
     inkscape:groupmode="layer"
     id="layer1"><path
       style="fill:#00004a;fill-opacity:1;stroke-width:1.45725"
       d="m 79.185158,220.47337 c -1.133944,-0.3921 -2.89212,-1.20666 -3.907057,-1.81013 C 74.228243,218.03901 60.019825,204.12471 42.317815,186.38525 17.8092,161.82476 10.980597,154.75729 10.155997,153.09842 c -1.6048316,-3.2285 -2.1616422,-6.9615 -1.540883,-10.33048 2.047216,-11.11064 13.641433,-16.92057 23.896359,-11.97463 2.414823,1.16467 5.038855,3.64858 27.143768,25.69429 l 24.470519,24.40498 54.0819,-54.0339 c 38.42361,-38.389482 54.60362,-54.293988 55.88387,-54.932279 4.16373,-2.075886 8.17795,-2.570609 12.18118,-1.501248 8.33605,2.226756 13.66333,10.445795 12.19041,18.807655 -1.01032,5.735676 2.4621,2.00797 -62.34019,66.923452 -32.8125,32.86982 -60.737589,60.58122 -62.055749,61.58088 -4.237539,3.21364 -10.285577,4.32564 -14.882023,2.73623 z"
       id="path1" /></g></svg>
