<?xml version="1.0" encoding="UTF-8" standalone="no"?>
<!-- Created with Inkscape (http://www.inkscape.org/) -->

<svg
   width="210mm"
   height="297mm"
   viewBox="0 0 210 297"
   version="1.1"
   id="svg1"
   xml:space="preserve"
   inkscape:version="1.4.2 (f4327f4, 2025-05-13)"
   sodipodi:docname="verifyPic.svg"
   xmlns:inkscape="http://www.inkscape.org/namespaces/inkscape"
   xmlns:sodipodi="http://sodipodi.sourceforge.net/DTD/sodipodi-0.dtd"
   xmlns="http://www.w3.org/2000/svg"
   xmlns:svg="http://www.w3.org/2000/svg"><sodipodi:namedview
     id="namedview1"
     pagecolor="#ffffff"
     bordercolor="#999999"
     borderopacity="1"
     inkscape:showpageshadow="2"
     inkscape:pageopacity="0"
     inkscape:pagecheckerboard="0"
     inkscape:deskcolor="#d1d1d1"
     inkscape:document-units="mm"
     inkscape:zoom="0.69753788"
     inkscape:cx="396.39424"
     inkscape:cy="561.25984"
     inkscape:window-width="1920"
     inkscape:window-height="1001"
     inkscape:window-x="-9"
     inkscape:window-y="-9"
     inkscape:window-maximized="1"
     inkscape:current-layer="layer1" /><defs
     id="defs1" /><g
     inkscape:label="Layer 1"
     inkscape:groupmode="layer"
     id="layer1"><path
       style="fill:#00004a;fill-opacity:1;stroke-width:1.84403"
       d="M 99.496056,250.39472 C 93.993915,248.12784 84.511814,243.2937 78.800319,239.84363 37.911795,215.14478 9.6906645,173.55701 1.9803392,126.63867 0.23543829,116.02071 0.10698463,113.28744 -0.11515036,82.049546 -0.36478578,46.944713 -0.44014416,47.909282 2.7954725,44.794437 4.0218919,43.613783 15.339409,38.714424 53.408926,22.883756 97.644221,4.4891444 102.70535,2.4931156 105.12618,2.4872687 c 2.4342,-0.00544 7.23724,1.8867171 51.70996,20.3757033 33.51756,13.934518 49.47273,20.800735 50.43706,21.705319 0.7758,0.727746 1.81716,2.201371 2.31411,3.274746 0.84571,1.826591 0.90425,3.734234 0.91428,29.786249 0.006,15.309089 -0.2186,30.787654 -0.49887,34.396864 -2.31621,29.82603 -12.37012,57.79793 -29.56963,82.26832 -10.29108,14.64149 -24.13545,28.48727 -39.20171,39.20562 -8.84942,6.29559 -23.2568,14.237 -31.35932,17.28534 -4.28205,1.611 -5.64176,1.55979 -10.376004,-0.39071 z M 112.3557,228.13307 c 38.81202,-19.78983 66.20513,-55.42696 75.4411,-98.14524 2.66057,-12.30567 2.83236,-14.80208 3.05095,-44.332646 l 0.20404,-27.566272 -19.17774,-7.910393 c -10.54776,-4.3507 -29.81354,-12.329172 -42.81284,-17.729931 -19.78129,-8.218454 -23.84816,-9.752808 -24.94168,-9.410044 -0.7186,0.225247 -20.115163,8.20373 -43.103456,17.729955 L 19.219162,58.088912 19.41038,85.655184 c 0.205217,29.584206 0.3489,31.668766 3.071708,44.564686 2.523041,11.94978 5.885542,21.48296 11.90166,33.74305 11.471002,23.37642 29.862425,43.75584 52.202286,57.845 4.711253,2.97128 17.479306,9.69399 18.451176,9.71503 0.3536,0.007 3.64691,-1.51778 7.31849,-3.38988 z M 90.97713,155.82722 c -1.296385,-0.36838 -5.269027,-4.02983 -16.495022,-15.20281 -8.133059,-8.09468 -15.222239,-15.41599 -15.753738,-16.26961 -0.5315,-0.85362 -1.097232,-2.65703 -1.257181,-4.00756 -0.598246,-5.05125 3.366538,-9.9467 8.627209,-10.6523 4.084474,-0.54784 5.653734,0.55334 17.446552,12.24257 l 10.86401,10.76856 21.58126,-21.5527 c 14.73239,-14.712943 22.1569,-21.791671 23.39517,-22.305723 7.77574,-3.227769 15.75249,4.420283 12.82677,12.298243 -0.73767,1.98638 -4.46011,5.92804 -26.0469,27.58107 -26.37157,26.45244 -27.838022,27.72873 -31.746666,27.62953 -0.953608,-0.0241 -2.50226,-0.26237 -3.441464,-0.52927 z"
       id="path1" /></g></svg>
