<?xml version="1.0" encoding="UTF-8" standalone="no"?>
<!-- Created with Inkscape (http://www.inkscape.org/) -->

<svg
   width="210mm"
   height="297mm"
   viewBox="0 0 210 297"
   version="1.1"
   id="svg1"
   xml:space="preserve"
   inkscape:version="1.4.2 (f4327f4, 2025-05-13)"
   sodipodi:docname="wrenchPic.svg"
   xmlns:inkscape="http://www.inkscape.org/namespaces/inkscape"
   xmlns:sodipodi="http://sodipodi.sourceforge.net/DTD/sodipodi-0.dtd"
   xmlns="http://www.w3.org/2000/svg"
   xmlns:svg="http://www.w3.org/2000/svg"><sodipodi:namedview
     id="namedview1"
     pagecolor="#ffffff"
     bordercolor="#999999"
     borderopacity="1"
     inkscape:showpageshadow="2"
     inkscape:pageopacity="0"
     inkscape:pagecheckerboard="0"
     inkscape:deskcolor="#d1d1d1"
     inkscape:document-units="mm"
     inkscape:zoom="0.98646753"
     inkscape:cx="398.89808"
     inkscape:cy="543.85977"
     inkscape:window-width="1920"
     inkscape:window-height="1001"
     inkscape:window-x="-9"
     inkscape:window-y="-9"
     inkscape:window-maximized="1"
     inkscape:current-layer="layer1" /><defs
     id="defs1" /><g
     inkscape:label="Layer 1"
     inkscape:groupmode="layer"
     id="layer1"><path
       style="fill:#ffffff;stroke-width:0.354839"
       d="m 32.799084,250.77961 c -5.23271,-0.81431 -11.30257,-3.22328 -15.772586,-6.25978 -1.013954,-0.68877 -3.108499,-2.46194 -4.654543,-3.94035 -10.5787301,-10.11597 -14.2547954,-25.19736 -9.518871,-39.05203 4.2412861,-12.4076 14.262703,-21.45247 27.16333,-24.51636 4.004487,-0.95107 11.650457,-1.16094 14.868155,-0.40811 1.013955,0.23722 2.669349,0.43582 3.67866,0.44134 l 1.835116,0.009 42.906511,-42.89349 C 116.90343,110.56839 136.42141,90.7592 136.67814,90.13941 c 0.36596,-0.88347 0.31299,-1.98109 -0.24519,-5.08113 -3.91831,-21.761795 12.25358,-42.103953 34.53146,-43.436125 l 4.40245,-0.263265 -10.29473,10.389947 c -6.01232,6.067923 -10.39548,10.814896 -10.53694,11.411485 -0.33929,1.431084 7.29264,24.396038 8.51313,25.616528 1.29911,1.29911 24.45524,8.97602 25.95797,8.6058 0.70183,-0.17291 4.8315,-3.98131 11.24848,-10.37345 l 10.13953,-10.100229 -0.005,2.856847 c -0.0151,7.956772 -3.49332,16.953762 -9.15173,23.671672 -4.01952,4.77215 -11.36999,9.39573 -18.08644,11.3767 -4.13509,1.21962 -12.42027,1.52463 -16.83566,0.61976 -2.30941,-0.47329 -3.61546,-0.56075 -4.30162,-0.28812 -0.54191,0.21534 -20.4091,19.83184 -44.14928,43.59225 l -43.16397,43.20075 0.188485,1.79355 c 0.103654,0.98643 0.430188,3.591 0.725604,5.78789 0.896932,6.67009 -0.427035,14.28084 -3.581178,20.58629 -4.953134,9.90182 -13.852265,17.11452 -24.555861,19.90243 -3.701873,0.9642 -10.976644,1.34564 -14.678156,0.76963 z m 19.288755,-29.78737 c 2.412166,-3.99947 4.385753,-7.45613 4.385753,-7.68145 0,-0.22532 -1.973587,-3.68199 -4.385753,-7.68145 l -4.385755,-7.27177 h -9.091997 -9.09201 l -4.402239,7.3383 c -2.421229,4.03608 -4.402239,7.48503 -4.402239,7.66432 0,0.17932 1.958641,3.60604 4.352548,7.61493 l 4.352547,7.28889 h 9.141689 9.141701 z m 56.398401,-72.10247 c 22.47635,-22.47551 40.8661,-41.05504 40.8661,-41.28783 0,-0.2328 -1.10885,-1.52056 -2.46414,-2.86169 l -2.46412,-2.43841 -41.16141,41.15988 -41.161434,41.15991 2.54355,2.56635 c 1.398945,1.4115 2.640698,2.56636 2.759445,2.56636 0.118797,0 18.605655,-18.38905 41.082009,-40.86457 z m 76.71289,101.673 c -0.45065,-0.10223 -1.78721,-0.39755 -2.97017,-0.65618 -1.18293,-0.25862 -2.1508,-0.58 -2.1508,-0.71421 0,-0.13418 6.51601,-6.75805 14.48003,-14.7197 l 14.48001,-14.4757 0.57564,1.98271 c 0.33892,1.16743 0.56856,3.75152 0.55845,6.28432 -0.0142,3.57014 -0.19802,4.80432 -1.08071,7.25786 -2.46942,6.86396 -8.02673,12.11888 -15.00618,14.18963 -2.2701,0.67353 -7.47325,1.17198 -8.88627,0.85127 z m -33.71994,-26.93159 -21.4267,-21.42959 1.07837,-2.14701 c 5.06349,-10.08116 -5.3297,-20.73251 -15.37281,-15.75468 l -2.4268,1.20282 -2.8792,-2.89852 -2.87918,-2.89854 15.97283,-15.96888 15.97282,-15.96889 2.88548,2.88547 2.88547,2.88548 -1.14356,2.02791 c -1.00459,1.78144 -1.14297,2.45113 -1.13866,5.51016 0.004,2.77256 0.18474,3.81999 0.88725,5.13938 1.19689,2.24793 4.0767,4.82024 6.38214,5.70069 2.71755,1.03784 6.88302,0.75048 9.60699,-0.66276 l 2.06158,-1.06959 21.56191,21.56478 21.56191,21.56478 -15.87723,15.8733 c -8.73246,8.73032 -15.96916,15.87331 -16.08158,15.87331 -0.11233,0 -9.84637,-9.64333 -21.63103,-21.42962 z m 33.01018,0.837 2.544,-2.56682 -18.74486,-18.74153 -18.74486,-18.74154 -2.64935,2.67313 -2.64935,2.67311 18.63184,18.63522 c 10.24753,10.24938 18.73013,18.63523 18.85022,18.63523 0.12004,0 1.36316,-1.15506 2.76236,-2.5668 z M 56.121758,106.15196 29.054881,79.085084 21.987714,77.309194 c -3.886946,-0.976744 -7.116264,-1.839748 -7.17627,-1.917802 -0.05996,-0.0781 -2.929037,-5.0925 -6.3756279,-11.143202 l -6.266539,-11.00127 5.4239271,-5.435112 5.4239148,-5.435099 11.150419,6.371841 11.150406,6.371829 1.760672,7.196802 1.760673,7.196802 27.08428,27.141377 27.084282,27.14135 -4.697693,4.71106 c -2.583733,2.5911 -4.793064,4.71107 -4.909601,4.71107 -0.116562,0 -12.392011,-12.18009 -27.278799,-27.06688 z"
       id="path1" /></g></svg>
